<?xml version="1.0" encoding="UTF-8" standalone="no"?>
<!-- Created with Inkscape (http://www.inkscape.org/) -->

<svg
   width="111.74689mm"
   height="64.718262mm"
   viewBox="0 0 111.74689 64.718262"
   version="1.1"
   id="svg5"
   xml:space="preserve"
   inkscape:version="1.2.2 (732a01da63, 2022-12-09)"
   sodipodi:docname="logo.svg"
   xmlns:inkscape="http://www.inkscape.org/namespaces/inkscape"
   xmlns:sodipodi="http://sodipodi.sourceforge.net/DTD/sodipodi-0.dtd"
   xmlns="http://www.w3.org/2000/svg"
   xmlns:svg="http://www.w3.org/2000/svg"><sodipodi:namedview
     id="namedview7"
     pagecolor="#ffffff"
     bordercolor="#000000"
     borderopacity="0.25"
     inkscape:showpageshadow="2"
     inkscape:pageopacity="0.0"
     inkscape:pagecheckerboard="0"
     inkscape:deskcolor="#d1d1d1"
     inkscape:document-units="mm"
     showgrid="false"
     inkscape:zoom="0.89263468"
     inkscape:cx="408.34174"
     inkscape:cy="494.04309"
     inkscape:window-width="3378"
     inkscape:window-height="1417"
     inkscape:window-x="54"
     inkscape:window-y="1072"
     inkscape:window-maximized="1"
     inkscape:current-layer="layer1" /><defs
     id="defs2" /><g
     inkscape:label="Layer 1"
     inkscape:groupmode="layer"
     id="layer1"
     transform="translate(-52.306405,-31.152893)"><path
       style="fill:#000000;stroke-width:0.352778"
       d="M 62.474797,95.377511 C 61.372214,95.1218 60.91529,94.909858 61.416463,94.886614 c 1.01388,-0.04703 2.921921,-1.117766 4.300926,-2.413558 l 0.949536,-0.892238 -0.506666,1.683522 c -0.501199,1.665355 -1.094902,2.679443 -1.523796,2.602749 -0.121764,-0.02177 -1.094514,-0.242083 -2.161666,-0.489578 z M 57.18313,94.186477 c -1.269485,-0.273315 -2.822222,-0.990332 -2.822222,-1.303235 0,-0.09701 0.336896,0.0039 0.748654,0.224278 0.411759,0.22037 1.245197,0.3011 1.852084,0.179402 0.606887,-0.121698 1.832253,-0.03475 2.723042,0.19323 2.290522,0.5862 3.296394,0.207074 5.781301,-2.179059 1.201204,-1.153456 2.292939,-2.097193 2.426077,-2.097193 0.491109,0 -3.514651,3.793621 -4.593135,4.349888 -1.330268,0.686138 -4.39494,1.003183 -6.115801,0.632689 z m 30.084214,-0.544442 c -1.48716,-1.251359 -1.741029,-2.59969 -0.848967,-4.508923 0.907588,-1.942469 1.418138,-2.497526 4.631418,-5.03518 1.455208,-1.149233 3.004182,-2.494594 3.442166,-2.989689 0.719719,-0.813573 0.736688,-0.912312 0.176389,-1.026333 -1.261685,-0.256748 -1.583144,-0.844381 -1.415623,-2.587801 0.275921,-2.871552 3.020821,-5.929098 5.322823,-5.929098 1.6534,0 2.17933,2.445583 1.050661,4.885574 -0.328638,0.710455 -3.080343,3.740026 -6.136443,6.756093 -4.35684,4.299772 -5.61964,5.757118 -5.910431,6.820997 -0.38831,1.420636 -0.05101,2.970438 0.7585,3.485173 0.620635,0.394631 2.297074,0.332704 3.176122,-0.117324 1.127612,-0.577282 3.397331,-2.809818 3.974634,-3.909522 0.532818,-1.014963 0.675305,-3.44189 0.235508,-4.011372 -0.145521,-0.188429 0.01323,-0.04384 0.352777,0.321306 2.275082,2.446606 -1.782949,8.206497 -6.072102,8.618633 -1.380017,0.132602 -1.803912,0.01298 -2.737432,-0.772534 z m 9.000345,-14.515613 c 1.536978,-1.076544 3.311683,-5.75352 2.537276,-6.686624 -0.617417,-0.743941 -1.947382,0.03732 -3.147257,1.848802 -1.200796,1.812869 -1.70482,4.108436 -1.07001,4.873336 0.539069,0.649534 0.707016,0.645982 1.679991,-0.03551 z m -33.611822,11.25112 c 0.286074,-0.548488 0.521116,-1.742464 0.522312,-2.653277 0.0018,-1.299898 -0.196137,-1.868879 -0.919995,-2.645833 l -0.922168,-0.98981 0.561252,0.945304 c 1.339038,2.255319 1.004337,5.586214 -0.560268,5.575684 -1.5341,-0.01034 -1.741611,-0.398586 -1.280566,-2.395947 0.311408,-1.349082 0.31864,-2.043356 0.02794,-2.681368 -0.300408,-0.659324 -0.286032,-0.949096 0.0614,-1.237435 0.249512,-0.207077 0.579621,-0.258819 0.733569,-0.114981 0.153953,0.143834 0.09542,-0.09316 -0.130083,-0.526659 -0.369968,-0.711235 -0.251425,-0.681161 1.214304,0.308046 2.224348,1.501196 2.427883,2.106351 1.6377,4.869226 -0.357452,1.249835 -0.833431,2.3336 -1.057727,2.408364 -0.265811,0.0886 -0.226698,-0.211307 0.112328,-0.861314 z M 52.78978,87.864473 c -0.639423,-2.799644 -0.644034,-3.979082 -0.01637,-4.187052 0.417092,-0.138197 1.5875,3.633085 1.5875,5.115232 0,0.566727 -0.212563,1.206821 -0.472363,1.422435 -0.381159,0.316336 -0.593305,-0.137513 -1.098765,-2.350615 z m 17.025824,-1.272067 c 0.997109,-1.304064 0.74415,-1.575502 -0.531258,-0.570068 -0.883539,0.696514 -1.001635,0.715473 -1.110174,0.178206 -0.171408,-0.848487 0.841823,-3.328292 1.871913,-4.581366 0.614778,-0.747861 0.873724,-0.889896 0.882692,-0.484166 0.007,0.315789 -0.235906,0.780478 -0.539743,1.032637 -0.617273,0.512293 -1.700914,2.45014 -1.370111,2.45014 0.565965,0 4.582798,-3.438345 5.402004,-4.624028 0.511641,-0.74053 1.040247,-1.352444 1.174676,-1.359806 0.13443,-0.0074 0.81812,0.325102 1.519308,0.738815 l 1.27489,0.752203 -1.812075,1.034916 c -0.996643,0.569207 -3.101999,2.25478 -4.678577,3.745717 -1.576578,1.490934 -2.514173,2.249996 -2.083545,1.6868 z m -15.329308,-6.7405 c 1.820502,-3.78568 2.751127,-6.080852 3.519551,-8.680193 1.355509,-4.585285 1.394537,-4.8089 1.624414,-9.308091 l 0.216295,-4.233333 0.482205,2.744128 c 0.265215,1.509271 0.610895,2.823661 0.768184,2.920873 0.290111,0.179299 1.160456,-2.38354 1.59367,-4.692773 0.219259,-1.16876 0.273985,-1.215394 0.716344,-0.610433 0.602417,0.823852 0.616758,1.578483 0.02999,1.578483 -0.258022,0 -0.64462,0.862676 -0.909041,2.028472 -1.33331,5.878386 -5.434856,15.670516 -7.646836,18.25625 l -0.905358,1.058333 0.510572,-1.061716 z m 5.725343,-0.349395 c 0.31678,-2.20399 2.014964,-5.365164 4.688219,-8.727126 3.180694,-4.000133 3.806408,-5.044803 4.275582,-7.138352 0.350308,-1.563144 0.314593,-1.831023 -0.367059,-2.753004 l -0.755124,-1.021362 0.807138,-0.859162 0.807138,-0.859159 0.469194,1.85964 c 0.258057,1.022798 0.766403,2.267571 1.129658,2.766155 l 0.660464,0.906519 -1.991999,2.329713 c -1.0956,1.281342 -2.970699,3.441502 -4.166891,4.80036 -2.50481,2.845424 -3.786085,4.907171 -4.940949,7.950655 -0.725914,1.91305 -0.795316,1.997086 -0.615371,0.745123 z m 66.539261,0.458611 c -0.63149,-0.63149 -0.5208,-1.570722 0.47986,-4.07199 2.3034,-5.757587 -1.33517,-4.749535 -4.04839,1.121593 l -1.31456,2.844564 -1.84322,0.10698 c -2.12284,0.123211 -3.96088,-0.777254 -4.78481,-2.344096 l -0.49319,-0.937884 -0.24639,0.975801 c -0.13552,0.536688 -0.16476,1.287995 -0.065,1.669574 0.15406,0.589103 0.0802,0.6396 -0.4895,0.334705 -0.36901,-0.197489 -0.67093,-0.610451 -0.67093,-0.917695 0,-0.438739 -0.25993,-0.360363 -1.21118,0.365188 -1.59495,1.21653 -2.92649,1.221352 -3.38618,0.01228 -0.19062,-0.50135 -0.25669,-1.056975 -0.14684,-1.234722 0.39171,-0.633801 -0.11552,-0.304758 -1.40518,0.911549 -1.44684,1.364548 -2.00085,1.500752 -2.81061,0.690997 -0.48979,-0.489786 -0.64804,-0.489786 -1.59518,0 -1.26209,0.652649 -2.20666,0.693557 -2.779825,0.120392 -0.664588,-0.664587 -0.513902,-1.446854 0.811385,-4.212272 0.6791,-1.417038 1.23473,-2.858724 1.23473,-3.203748 0,-0.392127 0.26452,-0.627313 0.70555,-0.627313 0.38806,0 0.70556,0.143503 0.70556,0.318897 0,0.175394 -0.65323,1.68027 -1.45163,3.344167 -1.48065,3.085758 -1.56955,4.098036 -0.35988,4.098036 1.0746,0 2.64142,-2.099528 3.90367,-5.230865 0.63918,-1.585662 1.21809,-2.883023 1.28647,-2.883023 0.0684,0 0.29116,0.311732 0.49506,0.692739 0.29633,0.553698 0.0794,1.339747 -1.08074,3.916288 -2.3235,5.16019 -0.72418,5.032763 3.06379,-0.244105 0.88989,-1.239675 1.55159,-2.556093 1.55159,-3.086805 0,-1.025465 0.28125,-1.143268 1.15641,-0.484368 0.53338,0.401578 0.46061,0.688527 -0.81452,3.212039 -1.54398,3.05557 -1.78362,4.460878 -0.76067,4.460878 0.97968,0 2.4072,-1.727355 3.21044,-3.884757 0.90553,-2.432152 3.8944,-7.704226 5.72535,-10.098955 0.76234,-0.997084 2.25623,-2.635832 3.31975,-3.641665 1.22991,-1.1632 1.64258,-1.72314 1.13387,-1.53851 -0.43989,0.159653 -2.30792,0.283912 -4.15119,0.276133 -2.88959,-0.01221 -3.63965,-0.147189 -5.4434,-0.979713 -1.15062,-0.531065 -2.7699,-1.52104 -3.59841,-2.199947 -2.79771,-2.292512 -4.5591,-7.462714 -3.71931,-10.917308 l 0.34303,-1.411111 0.0416,1.411111 c 0.0675,2.291262 0.96763,5.960237 1.92656,7.852576 2.00809,3.962774 5.23149,5.836585 10.07884,5.858972 3.81819,0.01764 6.5003,-1.066751 8.02841,-3.245905 0.86607,-1.235061 1.97402,-2.039426 4.04182,-2.934335 0.32263,-0.139626 -0.62987,0.926437 -2.11666,2.36903 -2.51888,2.443984 -2.61288,2.586429 -1.3782,2.088286 0.72879,-0.294037 2.23691,-0.625355 3.35139,-0.736265 3.87446,-0.385569 6.25965,1.240455 6.25965,4.267313 0,4.341428 -6.98324,6.064648 -9.3028,2.295606 l -0.54277,-0.881945 0.86584,0.749667 c 1.31561,1.139088 2.28024,1.543389 3.68239,1.543389 2.5814,0 4.4154,-1.649603 4.4154,-3.971463 0,-3.756092 -3.8811,-4.745704 -9.06165,-2.31056 -2.24439,1.054989 -5.38049,4.265771 -7.74191,7.926264 -2.54414,3.943745 -2.52015,3.839848 -0.88687,3.839848 1.70229,0 2.64566,0.679323 2.17213,1.564136 -0.18372,0.343277 -1.36894,1.160046 -2.63383,1.815041 -1.26488,0.654996 -2.38483,1.411708 -2.48878,1.681579 -0.52679,1.367734 2.57333,3.493139 4.1955,2.876391 1.00644,-0.382647 3.51661,-5.441851 3.28949,-6.629922 -0.12278,-0.642267 0.007,-0.794092 0.68123,-0.794092 0.45816,0 0.83302,0.162828 0.83302,0.361837 0,0.204311 0.47094,0.118304 1.08176,-0.197562 0.59496,-0.307669 1.50778,-0.510181 2.02847,-0.450032 1.35958,0.157064 1.44333,1.870318 0.24123,4.934289 -1.28412,3.272991 -1.11123,3.954794 0.61788,2.436622 0.72728,-0.63856 1.32233,-1.351531 1.32233,-1.584378 0,-0.232844 0.40213,-1.230327 0.89362,-2.216627 1.59501,-3.200773 4.99708,-4.741594 5.88815,-2.666788 0.22915,0.533577 0.45028,1.022689 0.49139,1.086916 0.14867,0.232286 1.73295,-0.772383 2.15501,-1.366605 0.23779,-0.334779 0.96558,-0.708727 1.61731,-0.830993 1.00703,-0.188919 1.44384,-0.632093 2.90888,-2.951296 2.08362,-3.29842 6.03908,-7.326644 8.44702,-8.60243 4.41329,-2.33826 9.51511,-1.989765 10.93014,0.746612 1.59673,3.087726 -0.70542,6.361546 -4.47343,6.361546 -2.22258,0 -4.48961,-1.114965 -4.51103,-2.218605 -0.003,-0.153077 0.34863,0.0515 0.78133,0.454625 1.62758,1.51632 4.96059,1.415058 6.64842,-0.201987 1.46665,-1.405142 1.46679,-3.650255 3.2e-4,-5.116724 -0.92548,-0.925488 -1.26326,-1.031198 -3.29504,-1.031198 -4.38895,0 -8.35596,2.856643 -12.39333,8.924438 -1.08771,1.634727 -1.97765,3.15298 -1.97765,3.373897 0,0.637638 0.76538,0.468453 1.65295,-0.365383 l 0.81649,-0.767052 v 0.954511 c 0,1.04062 -0.46838,1.340937 -2.21547,1.420513 -1.02904,0.04687 -1.25934,0.283577 -2.44768,2.515824 -1.55841,2.927392 -1.7625,4.757141 -0.53062,4.757141 1.21429,0 1.98766,-0.686259 5.55236,-4.926958 1.79959,-2.140867 3.51159,-3.892486 3.80443,-3.892486 0.456,0 0.44862,0.09263 -0.0514,0.645139 -0.77783,0.85949 -0.736,1.906943 0.14512,3.634087 0.59809,1.17234 0.66226,1.620259 0.35742,2.494738 -0.34207,0.981252 -0.32293,1.029124 0.24117,0.603166 0.337,-0.254473 1.04929,-0.857504 1.58287,-1.340072 0.53357,-0.482569 0.97013,-0.702282 0.97013,-0.488259 0,0.875803 -3.82661,3.345452 -5.82083,3.756695 -1.38227,0.285048 -2.85826,-0.469042 -2.7159,-1.38757 0.1348,-0.86977 1.68492,-2.281005 2.47099,-2.249604 0.47265,0.01887 0.44006,0.100203 -0.15582,0.388729 -0.91768,0.444349 -1.71001,2.027485 -1.24663,2.490862 0.59609,0.596096 2.26551,0.118872 2.98891,-0.854424 0.66611,-0.896197 0.67798,-1.077003 0.21128,-3.217023 l -0.4945,-2.267455 -2.82222,3.122144 c -2.94991,3.263402 -4.01717,3.971815 -5.69472,3.779968 -0.96319,-0.110155 -1.00691,-0.193799 -0.98227,-1.879177 0.0167,-1.142153 0.34743,-2.416711 0.93829,-3.615972 0.50188,-1.018646 0.86159,-1.852083 0.79936,-1.852083 -0.0622,0 -1.00745,0.342229 -2.10048,0.760507 -1.80279,0.689889 -2.0691,0.933348 -2.86787,2.621799 -1.15169,2.434488 -2.95276,4.026027 -4.55606,4.026027 -0.84083,0 -1.32296,-0.211014 -1.58015,-0.691579 -0.36171,-0.675858 -0.3992,-0.671847 -1.64915,0.176389 -1.46587,0.994767 -1.59228,1.020689 -2.16834,0.444634 z m 6.71849,-0.979914 c 0.48784,-0.383734 1.23776,-1.443951 1.66649,-2.356041 l 0.77952,-1.658344 -0.80851,-0.609854 c -0.71264,-0.537545 -0.75884,-0.718838 -0.38968,-1.529045 0.41134,-0.902801 0.40437,-0.909733 -0.39091,-0.388648 -1.6752,1.097633 -3.54275,5.703517 -2.71635,6.699264 0.58095,0.699999 0.79225,0.68212 1.85944,-0.157332 z m -16.74096,-3.857699 c 2.55545,-1.317562 3.56006,-2.855101 2.05603,-3.146732 -0.93451,-0.181204 -2.25139,0.864214 -3.04285,2.415614 -0.3945,0.773275 -0.62834,1.405954 -0.51966,1.405954 0.10869,0 0.78661,-0.303675 1.50648,-0.674836 z M 136.20535,73.3289 c 0,-0.388055 -0.14938,-0.705555 -0.33196,-0.705555 -0.47355,0 -0.80723,0.642101 -0.54999,1.058333 0.3687,0.596561 0.88195,0.391259 0.88195,-0.352778 z m -57.145134,5.680548 c -4.516988,-1.60957 -6.486789,-6.379154 -4.427117,-10.719594 1.376676,-2.901131 5.043131,-5.358595 8.628358,-5.783213 1.96899,-0.233197 1.987561,-0.255637 1.26195,-1.524963 -0.277291,-0.485069 -0.509792,-1.77752 -0.516665,-2.872112 l -0.0125,-1.990168 -1.418251,-0.567471 c -1.818238,-0.727516 -2.652057,-0.706088 -4.459545,0.114604 -2.079484,0.944185 -2.946386,1.921002 -2.916851,3.286675 0.02032,0.939278 0.0761,1.018988 0.308631,0.440972 0.156111,-0.388056 0.211028,-0.830982 0.122036,-0.984278 -0.08899,-0.1533 0.288061,-0.180146 0.837893,-0.05966 0.697004,0.152735 0.852495,0.115549 0.513528,-0.122805 -0.499805,-0.351462 -0.267165,-1.12631 0.338166,-1.12631 0.520972,0 3.146615,1.815694 3.146615,2.175958 0,0.175069 -0.307064,0.153973 -0.682364,-0.04688 -0.937641,-0.501809 -1.041657,-0.465325 -0.842673,0.295596 0.212369,0.812101 -1.616336,1.566305 -2.972495,1.225931 -0.664259,-0.166719 -0.844119,-0.09953 -0.718357,0.268358 0.175524,0.513457 1.552606,0.581621 3.099223,0.153409 0.849065,-0.235081 0.856417,-0.223478 0.197157,0.311168 -0.928169,0.752725 -2.77434,0.70528 -3.493869,-0.08979 -0.369969,-0.40881 -0.583844,-1.256097 -0.583844,-2.312942 0,-1.428013 0.163118,-1.816788 1.134534,-2.704042 0.623993,-0.56993 1.672692,-1.213845 2.330439,-1.430919 1.130131,-0.372978 4.339103,-0.274359 5.883638,0.180816 0.542939,0.160002 0.931975,-0.122181 1.687932,-1.224322 1.756883,-2.561435 6.251233,-4.057382 11.38089,-3.788146 4.599395,0.241406 6.343665,1.739018 6.313675,5.420833 -0.028,3.444557 -2.28179,5.094386 -6.954221,5.090781 -3.220614,-0.0025 -4.565385,-0.380605 -7.544015,-2.121214 -1.313631,-0.767645 -2.519186,-1.264948 -2.679012,-1.105122 -0.441198,0.441198 -0.732684,2.722333 -0.477689,3.738319 0.165869,0.660876 0.457581,0.901096 1.094246,0.901096 1.865316,0 3.64019,1.055332 4.394104,2.612715 1.063759,2.197431 0.861967,2.788091 -0.25679,0.751646 -0.820678,-1.493855 -1.194968,-1.819003 -2.549398,-2.214654 -3.022572,-0.882947 -6.601089,0.455012 -9.327486,3.487423 -2.097977,2.333456 -2.867664,4.867593 -2.303628,7.584532 1.524829,7.345059 11.518712,5.676498 17.859409,-2.981777 0.612161,-0.83591 1.206701,-1.368259 1.321199,-1.182998 0.279706,0.452575 -2.47413,4.135127 -4.359025,5.829078 -3.552983,3.193059 -8.550744,4.440079 -12.357826,3.083472 z M 99.507205,58.869735 c 1.840735,-0.939073 2.478705,-1.947026 2.478705,-3.9162 0,-3.020783 -2.048634,-4.40557 -6.120317,-4.137067 -2.568872,0.1694 -5.856157,1.564749 -7.578781,3.216948 -2.163131,2.074701 -2.139379,2.193689 0.726605,3.640134 3.331722,1.681505 3.868621,1.830539 6.724738,1.866696 1.739985,0.02201 2.77114,-0.161417 3.76905,-0.670511 z m 12.823165,10.719396 c -0.2586,-0.673915 0.44066,-1.186261 1.62921,-1.193719 0.80864,-0.0051 0.82149,0.0236 0.21069,0.47025 -0.35777,0.261605 -0.53749,0.65848 -0.39939,0.881944 0.15887,0.257048 -0.0198,0.406294 -0.48634,0.406294 -0.40559,0 -0.83497,-0.254148 -0.95417,-0.564769 z M 79.293684,57.294572 c -1.832553,-0.653518 -1.894014,-0.79326 -0.424356,-0.964837 0.889864,-0.103886 1.466543,0.044 1.958368,0.502204 1.204161,1.121847 0.72214,1.267217 -1.534012,0.462633 z M 59.681689,55.456025 c -0.404936,-1.466561 -0.665049,-1.012949 3.538859,-6.171449 2.222249,-2.726861 2.721899,-3.572811 2.893765,-4.899403 0.114258,-0.881898 0.312279,-1.875885 0.440055,-2.208862 0.16644,-0.433739 0.08895,-0.550395 -0.27329,-0.411392 -0.317306,0.121762 -0.667339,-0.16094 -0.939867,-0.759075 -0.600675,-1.318336 -0.887638,-5.062394 -0.469815,-6.129721 0.338913,-0.865752 0.356517,-0.854148 0.958765,0.631997 0.88386,2.181069 1.005844,1.614019 0.173327,-0.805731 -0.777907,-2.26102 -0.893166,-3.354044 -0.353692,-3.354044 0.194028,0 0.352778,0.447971 0.352778,0.99549 0,1.574361 0.987365,4.061233 2.09308,5.271836 0.858079,0.939478 0.936748,1.175096 0.510473,1.528873 -0.575553,0.47767 -0.549568,0.495519 -1.335172,-0.917032 -0.498154,-0.895702 -0.54863,-0.922807 -0.328472,-0.176389 0.143073,0.485069 0.267935,1.239132 0.277471,1.675694 0.02039,0.933275 0.286339,1.003142 0.918591,0.241322 0.545027,-0.656718 2.227015,-1.567563 2.873593,-1.556135 0.252169,0.0045 -0.101684,0.333081 -0.786348,0.730275 -4.13107,2.39657 -4.292815,8.32558 -0.254466,9.327881 1.157929,0.287392 1.18068,0.173891 0.265903,-1.326483 -0.387333,-0.63528 -0.690513,-1.551929 -0.673739,-2.036999 0.02755,-0.796541 0.06165,-0.774391 0.352256,0.22874 0.581117,2.005955 2.734733,3.429384 7.022941,4.641802 l 1.234722,0.349095 -1.069647,0.03601 c -0.588306,0.01983 -1.914105,-0.183036 -2.94622,-0.450762 -1.032115,-0.267727 -2.142987,-0.417107 -2.468601,-0.331957 -0.871633,0.227937 -2.264474,-0.397158 -3.706897,-1.663624 -0.849256,-0.745658 -1.273912,-0.945558 -1.273912,-0.599677 0,0.285357 -0.643488,0.944671 -1.429971,1.465141 -1.680048,1.111804 -3.288802,3.502424 -4.109956,6.107423 -0.322379,1.02271 -0.708441,1.859471 -0.857917,1.859471 -0.149472,0 -0.432343,-0.581544 -0.628597,-1.29232 z m 53.416721,-3.274516 c -1.49548,-0.612083 -2.71281,-2.753924 -3.11878,-5.487331 -0.22057,-1.485103 -0.17398,-1.40955 0.87007,1.411111 0.68469,1.849773 1.76627,3.309151 2.95426,3.986177 0.80869,0.460866 0.34503,0.520041 -0.70555,0.09004 z M 78.467108,49.343702 c -1.422184,-0.299622 -4.536531,-1.724307 -3.821479,-1.74817 0.194028,-0.0065 1.132071,0.224635 2.084539,0.513576 5.170481,1.568519 10.795473,-0.677973 12.176682,-4.863085 0.226409,-0.686027 0.536879,-3.113381 0.689931,-5.39412 0.262657,-3.914082 0.332137,-4.19313 1.238095,-4.9724 0.5279,-0.454081 1.268465,-0.825602 1.645701,-0.825602 1.07169,0 0.80548,0.524283 -0.455556,0.897185 -1.699701,0.502621 -2.022432,1.511378 -2.028359,6.339983 -0.0057,4.614185 -0.450825,6.066734 -2.420327,7.897414 -2.011955,1.870141 -5.992315,2.811883 -9.109227,2.155219 z m 37.032222,-2.681871 -0.98981,-0.914291 1.14652,0.761924 c 1.05025,0.697941 1.3924,1.066659 0.98981,1.066659 -0.0862,0 -0.60213,-0.411432 -1.14652,-0.914292 z M 78.161158,46.182113 c -0.960144,-0.389185 -1.464874,-1.041999 -1.781739,-2.304488 l -0.263211,-1.048717 1.127749,0.94894 c 1.186113,0.998048 3.092919,1.676337 4.721811,1.679641 1.318101,0.0027 1.229123,0.567531 -0.132292,0.839814 -1.440734,0.288147 -2.780972,0.246107 -3.672318,-0.11519 z m 2.506631,-1.344479 c -0.11073,-0.110729 -0.201327,-0.819146 -0.201327,-1.57426 0,-1.945587 -0.687006,-6.129302 -1.28464,-7.823179 -0.601557,-1.704994 -2.125553,-3.409272 -2.812806,-3.145548 -0.554683,0.212852 -0.626742,-0.182009 -0.166,-0.909658 0.25097,-0.396357 0.495459,-0.308925 1.252174,0.447789 1.009368,1.009371 1.634046,2.323902 3.195334,6.72405 0.606171,1.708368 1.46697,3.323307 2.209444,4.145138 1.008408,1.116188 1.103803,1.34675 0.55796,1.348552 -0.362126,0.0012 -1.083751,0.224084 -1.603611,0.495308 -0.519861,0.271224 -1.035798,0.402538 -1.146528,0.291808 z m -2.622592,-1.5244 c -0.972132,-1.043463 -1.45929,-3.333162 -1.45929,-6.858838 0,-3.610135 0.381935,-3.777613 1.871744,-0.82076 0.785135,1.558273 1.033003,2.631342 1.198745,5.189592 0.182397,2.815314 0.136818,3.225117 -0.358693,3.225117 -0.312205,0 -0.875831,-0.3308 -1.252506,-0.735111 z m 19.178209,-1.731269 c -0.582083,-0.383813 -1.931458,-1.038884 -2.998611,-1.455712 -1.783665,-0.696699 -3.415347,-1.952376 -3.033363,-2.334358 0.255348,-0.25535 4.858173,2.307441 6.195038,3.449313 1.412854,1.206782 1.349887,1.338365 -0.163064,0.340757 z m 3.488094,-1.097009 c -1.439457,-1.14821 -3.935222,-2.510162 -5.428372,-2.962291 -2.792846,-0.845678 -4.586111,-1.692823 -4.586111,-2.166495 0,-0.62406 0.497907,-0.503785 3.981926,0.96188 2.676148,1.125808 5.660757,3.002112 6.937927,4.3616 1.14156,1.215134 0.7589,1.132845 -0.90537,-0.194694 z m 10.29734,0.78502 c -0.12096,-0.195726 -0.9703,-0.465199 -1.88741,-0.598827 -1.97269,-0.287435 -4.3133,-1.155672 -4.3133,-1.599998 0,-0.588169 2.94637,-0.317312 4.44618,0.408733 1.53607,0.743597 2.50362,1.616807 2.1658,1.954623 -0.10523,0.105234 -0.2903,0.0312 -0.41127,-0.164531 z m -5.63491,-0.572633 c -0.3679,-0.278488 -1.65439,-0.834287 -2.85886,-1.235109 -1.20447,-0.400822 -2.49096,-0.971512 -2.858859,-1.2682 -0.619647,-0.499699 -0.564981,-0.522775 0.742199,-0.313293 1.96845,0.315456 4.07812,1.316905 5.08857,2.415518 0.94629,1.028848 0.90584,1.172341 -0.11305,0.401084 z M 82.583129,37.698345 c 0.696556,-0.450149 2.469444,-0.450149 2.469444,0 0,0.194028 -0.674687,0.350347 -1.499305,0.347376 -1.098007,-0.004 -1.357669,-0.09693 -0.970139,-0.347376 z m -0.705556,-2.822222 c 0.291042,-0.188086 1.005417,-0.333247 1.5875,-0.322581 0.908657,0.01665 0.958547,0.06227 0.352778,0.322581 -0.388055,0.166753 -1.10243,0.311914 -1.5875,0.32258 -0.695103,0.01528 -0.769839,-0.05306 -0.352778,-0.32258 z"
       id="path179" /></g></svg>
